<?xml version="1.0" encoding="iso-8859-1"?>
<!-- Uploaded to: SVG Repo, www.svgrepo.com, Generator: SVG Repo Mixer Tools -->
<svg height="800px" width="800px" version="1.1" id="Layer_1" xmlns="http://www.w3.org/2000/svg" xmlns:xlink="http://www.w3.org/1999/xlink" 
	 viewBox="0 0 392.598 392.598" xml:space="preserve">
<path style="fill:#FFFFFF;" d="M370.747,119.834c0-54.044-40.404-98.004-90.053-98.004c-30.319,0-58.311,16.485-75.119,44.024l0,0
	c-4.267,6.982-14.352,6.982-18.618,0l0,0c-16.743-27.604-44.8-44.024-75.119-44.024c-35.943,0-66.974,23.079-81.39,56.307h64.97
	c6.012,0,10.925,4.848,10.925,10.925c0,6.077-4.848,10.925-10.925,10.925H23.661c-1.228,6.4-1.875,12.994-1.875,19.782
	c0,0.646,0.065,1.293,0.065,2.004h40.857c6.012,0,10.925,4.848,10.925,10.925c0,6.012-4.848,10.925-10.925,10.925H25.341
	C47.192,224.109,165.43,338.21,196.202,366.848C230.141,334.848,370.747,197.475,370.747,119.834z"/>
<path style="fill:#56ACE0;" d="M280.824,47.624c-22.562,0-43.636,12.541-56.501,33.552l0,0c-12.735,20.945-43.184,20.945-55.855,0
	c-12.735-21.01-33.939-33.552-56.501-33.552c-37.624,0-68.267,34.198-68.267,76.154c0,53.333,86.109,153.535,152.566,217.147
	c69.56-67.491,152.76-167.887,152.76-217.147C349.026,81.822,318.448,47.624,280.824,47.624z"/>
<g>
	<path style="fill:#FFC10D;" d="M261.301,125.329c-10.02-8.857-21.527-12.283-29.543-13.576v34.651
		c19.846,0.388,37.107,7.37,49.778,14.481C277.721,145.628,270.933,133.798,261.301,125.329z"/>
	<path style="fill:#FFC10D;" d="M183.143,254.234c-13.964,2.651-23.014,11.572-21.851,17.842c0.84,6.594,13.899,11.766,26.958,8.792
		c13.834-2.65,22.949-11.572,21.786-17.842C208.873,256.82,197.107,251.713,183.143,254.234z"/>
</g>
<g>
	<path style="fill:#194F82;" d="M275.782,108.974c-24.63-21.721-54.368-19.846-55.661-19.782c-5.689,0.388-10.15,5.172-10.15,10.925
		v57.6c0,0.065,0,0.259,0,0.323v77.446c-8.792-3.491-19.653-4.59-30.966-2.457c-25.6,4.784-42.796,23.79-39.176,43.249
		c6.723,28.25,39.305,28.768,52.234,26.376h0.129c25.083-4.719,42.085-23.079,39.305-42.214c0.129-0.711,0.259-92.121,0.259-92.121
		c31.806,0.905,56.307,23.855,56.566,24.113l0,0c7.111,6.853,19.006,1.487,18.489-8.469
		C305.002,150.735,294.529,125.523,275.782,108.974z M231.822,146.339v-34.651c8.016,1.293,19.459,4.719,29.543,13.576
		c9.568,8.404,16.291,20.299,20.17,35.491C268.929,153.644,251.669,146.727,231.822,146.339z M188.251,280.998
		c-13.059,2.844-26.117-2.327-26.958-8.792c-1.164-6.271,7.887-15.192,21.851-17.842c13.899-2.521,25.665,2.521,26.828,8.857
		C211.2,269.426,202.085,278.347,188.251,280.998z"/>
	<path style="fill:#194F82;" d="M280.695,0.044c-32.776,0-63.354,15.127-84.428,41.244c-21.075-26.117-51.717-41.244-84.428-41.244
		C50.166,0.044,0,53.766,0,119.834c0,100.073,181.269,263.111,189.026,269.964c4.202,3.685,10.408,3.685,14.61-0.065l0,0
		c7.758-6.982,188.962-172.477,188.962-269.899C392.533,53.766,342.368,0.044,280.695,0.044z M25.341,143.624h37.495
		c6.012,0,10.925-4.848,10.925-10.925c0-6.012-4.848-10.925-10.925-10.925H21.915c0-0.711-0.065-1.422-0.065-2.004
		c0-6.788,0.646-13.382,1.875-19.782h71.758c6.012,0,10.925-4.848,10.925-10.925c0-6.012-4.848-10.925-10.925-10.925H30.448
		c14.481-33.228,45.446-56.307,81.39-56.307c30.319,0,58.311,16.485,75.119,44.024l0,0c4.267,6.982,14.352,6.982,18.618,0l0,0
		c16.743-27.604,44.8-44.024,75.119-44.024c49.713,0,90.053,43.96,90.053,98.004c0,77.64-140.606,215.079-174.481,247.014
		C165.43,338.21,47.192,224.109,25.341,143.624z"/>
</g>
</svg>