<?xml version="1.0" encoding="iso-8859-1"?>
<!-- Uploaded to: SVG Repo, www.svgrepo.com, Generator: SVG Repo Mixer Tools -->
<svg height="800px" width="800px" version="1.1" id="Layer_1" xmlns="http://www.w3.org/2000/svg" xmlns:xlink="http://www.w3.org/1999/xlink" 
	 viewBox="0 0 512 512" xml:space="preserve">
<path style="fill:#3C66B1;" d="M256,9.632c-37.804,0-83.369,14.336-83.369,14.336C76.452,58.228,7.604,150.088,7.604,258.028
	c0,137.186,111.21,248.396,248.396,248.396s248.396-111.21,248.396-248.396S393.186,9.632,256,9.632z M256,458.25
	c-110.58,0-200.222-89.643-200.222-200.222S145.42,57.805,256,57.805s200.222,89.643,200.222,200.222S366.58,458.25,256,458.25z"/>
<circle style="fill:#52A2E7;" cx="256" cy="258.028" r="215.385"/>
<g>
	<path style="opacity:0.22;fill:#3C66B1;enable-background:new    ;" d="M400.056,55.651c28.972,40.629,46.018,90.35,46.018,144.055
		c0,137.186-111.21,248.396-248.396,248.396c-53.704,0-103.426-17.046-144.056-46.018C98.659,465.24,172.519,506.424,256,506.424
		c137.186,0,248.396-111.21,248.396-248.396C504.396,174.546,463.212,100.687,400.056,55.651z"/>
	<polygon style="fill:#3C66B1;" points="171.85,190.099 171.85,160.359 230.653,160.359 230.653,350.289 171.85,350.289 
		171.85,255.324 	"/>
	<polygon style="fill:#3C66B1;" points="276.593,277.291 276.593,160.359 335.397,160.359 335.397,350.289 276.593,350.289 
		276.593,337.7 	"/>
</g>
<path d="M98.657,413.343c42.028,42.029,97.907,65.174,157.343,65.174s115.316-23.145,157.343-65.174
	c42.029-42.028,65.174-97.907,65.174-157.343s-23.145-115.316-65.174-157.343C371.316,56.628,315.437,33.483,256,33.483
	S140.684,56.628,98.657,98.657C56.628,140.684,33.483,196.563,33.483,256S56.628,371.316,98.657,413.343z M256,48.691
	c114.311,0,207.309,92.998,207.309,207.309S370.311,463.309,256,463.309S48.691,370.311,48.691,256S141.689,48.691,256,48.691z"/>
<path d="M437.019,74.981C388.668,26.629,324.38,0,256,0c-42.578,0-84.742,10.667-121.931,30.849
	c-3.691,2.003-5.059,6.618-3.057,10.31c2.002,3.69,6.616,5.058,10.31,3.057C176.292,25.239,215.947,15.208,256,15.208
	c132.773,0,240.792,108.019,240.792,240.792S388.773,496.792,256,496.792S15.208,388.773,15.208,256
	c0-67.074,26.906-129.346,75.761-175.345c3.058-2.878,3.203-7.691,0.323-10.749c-2.879-3.059-7.69-3.203-10.749-0.323
	c-25.162,23.693-44.967,51.67-58.863,83.158C7.295,185.34,0,220.082,0,256c0,68.38,26.629,132.668,74.981,181.019
	S187.62,512,256,512s132.668-26.629,181.019-74.981S512,324.38,512,256S485.371,123.332,437.019,74.981z"/>
<path d="M171.85,357.893h58.804c4.199,0,7.604-3.405,7.604-7.604v-189.93c0-4.199-3.405-7.604-7.604-7.604H171.85
	c-4.199,0-7.604,3.405-7.604,7.604v29.74c0,4.199,3.405,7.604,7.604,7.604c4.199,0,7.604-3.405,7.604-7.604v-22.136h43.596v174.722
	h-43.596v-87.361c0-4.199-3.405-7.604-7.604-7.604c-4.199,0-7.604,3.405-7.604,7.604v94.965
	C164.246,354.489,167.65,357.893,171.85,357.893z"/>
<path d="M276.593,357.893h58.804c4.199,0,7.604-3.405,7.604-7.604v-189.93c0-4.199-3.405-7.604-7.604-7.604h-58.804
	c-4.199,0-7.604,3.405-7.604,7.604v116.932c0,4.199,3.405,7.604,7.604,7.604c4.199,0,7.604-3.405,7.604-7.604V167.963h43.596
	v174.722h-43.596V337.7c0-4.199-3.405-7.604-7.604-7.604c-4.199,0-7.604,3.405-7.604,7.604v12.589
	C268.989,354.489,272.392,357.893,276.593,357.893z"/>
</svg>